<svg width="32" height="32" viewBox="0 0 32 32" fill="none" xmlns="http://www.w3.org/2000/svg">
<path d="M10.7589 17.5145H8.30469V18.5448H10.7589C11.6655 18.5448 12.481 18.0405 12.8864 17.2296L11.9648 16.7686C11.7351 17.2286 11.273 17.5145 10.7589 17.5145Z" fill="url(#paint0_linear_974_16605)"/>
<path d="M6.24028 11.333C5.10386 11.333 4.17969 12.2572 4.17969 13.3936H5.20998C5.20998 12.8254 5.67207 12.3633 6.24028 12.3633C6.80849 12.3633 7.27058 12.8254 7.27058 13.3936H8.30088C8.30088 12.2572 7.3767 11.333 6.24028 11.333Z" fill="url(#paint1_linear_974_16605)"/>
<path d="M13.459 11.333C12.3226 11.333 11.3984 12.2572 11.3984 13.3936H12.4287C12.4287 12.8254 12.8908 12.3633 13.459 12.3633C14.0272 12.3633 14.4893 12.8254 14.4893 13.3936H15.5196C15.5196 12.2572 14.5954 11.333 13.459 11.333Z" fill="url(#paint2_linear_974_16605)"/>
<path d="M24.2768 19.2743L24.4278 19.4252L25.1562 18.6968L25.0058 18.5459C24.3418 17.8818 23.1816 17.8818 22.5181 18.5459L22.3672 18.6968L23.0956 19.4252L23.2465 19.2743C23.5216 18.9987 24.0018 18.9987 24.2768 19.2743Z" fill="url(#paint3_linear_974_16605)"/>
<path d="M25.6119 18.5459L25.4609 18.6968L26.1894 19.4252L26.3403 19.2743C26.6149 18.9987 27.095 18.9987 27.3706 19.2743L27.5215 19.4252L28.25 18.6968L28.0995 18.5459C27.435 17.8818 26.2754 17.8818 25.6119 18.5459Z" fill="url(#paint4_linear_974_16605)"/>
<path d="M31.263 17.7484L31.399 17.5444C31.7931 16.9535 32.0017 16.2653 32.0017 15.5539C32.0017 14.351 31.4041 13.2347 30.4032 12.5676L30.3841 12.5552C29.9597 11.2189 28.7202 10.303 27.302 10.303H26.9775C26.4773 10.303 25.977 10.4209 25.5304 10.6445L25.3048 10.7573L25.0797 10.6445C24.633 10.4209 24.1328 10.303 23.6321 10.303H23.3076C21.8893 10.303 20.6499 11.2189 20.2249 12.5552L20.2058 12.5676C19.9843 12.7154 19.786 12.8885 19.6057 13.076C19.5191 12.5233 19.2162 12.0447 18.782 11.7289L19.4171 9.18871C19.5634 8.6035 19.6381 8.00026 19.6381 7.39496C19.6381 3.31704 16.3206 0 12.2427 0H7.78973C3.52893 0 0.0625 3.46643 0.0625 7.72723V16.4848C0.0625 18.0627 0.732708 19.5772 1.87891 20.6415C1.37767 21.1937 1.0928 21.9263 1.0928 22.6737C1.0928 23.3888 1.34677 24.0564 1.77537 24.5813C1.34316 25.0269 1.0928 25.6245 1.0928 26.2597C1.0928 27.1437 1.58013 27.9339 2.31731 28.3553C2.19212 28.6448 2.12309 28.9596 2.12309 29.2754C2.12309 30.1619 2.61558 30.9589 3.40787 31.3545L4.69884 32L6.24428 31.2273V31.9392H12.4261V31.9351C12.4616 31.9356 12.4972 31.9392 12.5332 31.9392H17.5776C18.1458 31.9392 18.6078 31.4771 18.6078 30.9089H19.6381C20.7746 30.9089 21.6987 29.9847 21.6987 28.8483C21.6987 28.7602 21.6833 28.6768 21.673 28.5918L22.6574 29.2481C22.6806 29.2635 22.7059 29.2738 22.7296 29.2888V31.9392H28.9113V26.1222C28.9113 25.2356 28.4281 24.4665 27.7162 24.0435C28.9093 23.313 29.7495 22.0623 29.9118 20.6059H30.4563C31.3083 20.6059 32.0017 19.9126 32.0017 19.0605C32.0017 18.5047 31.7045 18.0209 31.263 17.7484ZM20.7777 13.4253L21.1202 13.1971L21.1687 13.0039C21.4144 12.02 22.2937 11.3333 23.3076 11.3333H23.6321C23.9731 11.3333 24.3141 11.4136 24.6186 11.5661L25.3048 11.9092L25.9915 11.5661C26.2954 11.4136 26.6359 11.3333 26.9775 11.3333H27.302C28.3158 11.3333 29.1952 12.02 29.4414 13.0034L29.4898 13.1966L29.8324 13.4248C30.5454 13.9003 30.9714 14.6962 30.9714 15.5539C30.9714 16.0608 30.8225 16.5517 30.5418 16.9731L30.1807 17.5151H29.9411C29.9411 16.663 29.2477 15.9696 28.3957 15.9696H26.5782C25.3537 15.9696 24.2523 15.2891 23.7047 14.1939L22.7831 14.6549C22.9104 14.9089 23.0603 15.1464 23.2292 15.3648L21.7894 15.7764C21.1295 15.9645 20.6684 16.5754 20.6684 17.2621V17.5151H20.4289L20.0678 16.9731C19.787 16.5517 19.6381 16.0613 19.6381 15.5539C19.6381 14.6962 20.0642 13.9003 20.7777 13.4253ZM20.6684 19.5756H20.1533C19.8694 19.5756 19.6381 19.3449 19.6381 19.0605C19.6381 18.7761 19.8694 18.5453 20.1533 18.5453H20.6684V19.5756ZM17.5776 12.3636C18.1458 12.3636 18.6078 12.8257 18.6078 13.3939C18.6078 13.9621 18.1458 14.4242 17.5776 14.4242V12.3636ZM4.69884 30.8481L3.86893 30.4329C3.42745 30.2124 3.15339 29.7689 3.15339 29.2754C3.15339 29.0755 3.20079 28.8756 3.28991 28.6969L3.29763 28.6814L4.08272 28.838L4.28466 27.8278L3.23736 27.6187C2.59188 27.4894 2.12309 26.9175 2.12309 26.2597C2.12309 25.8754 2.28743 25.5205 2.56046 25.2619C2.851 25.437 3.17348 25.5658 3.52018 25.6353L4.0822 25.7482L4.28517 24.7379L3.72263 24.6251C2.79588 24.4392 2.12309 23.619 2.12309 22.6737C2.12309 22.1498 2.33534 21.6373 2.70624 21.2674L3.4223 20.5503L2.94733 20.1938C1.78619 19.3227 1.0928 17.9359 1.0928 16.4848V7.72723C1.0928 4.03464 4.09714 1.0303 7.78973 1.0303H12.2427C15.7524 1.0303 18.6078 3.88577 18.6078 7.39496C18.6078 7.91577 18.544 8.43504 18.4178 8.93886L17.8135 11.357C17.7347 11.3482 17.6584 11.3333 17.5776 11.3333V10.3632C17.5776 9.22683 16.6534 8.30265 15.517 8.30265H9.55978C7.80003 8.30265 6.25098 7.1786 5.70389 5.50642L4.72459 5.82633C4.95641 6.53518 5.33144 7.1652 5.81156 7.68808L3.50936 8.48553C2.68049 8.77298 2.12309 9.55549 2.12309 10.4333V14.9393C2.12309 18.3769 4.38099 21.2947 7.49043 22.2946C6.85216 22.785 6.40655 23.5114 6.28292 24.3428L5.0512 24.7534L5.37729 25.7301L6.24428 25.4416V27.4471L5.0512 27.8448L5.37729 28.8215L6.24428 28.5325V30.0754L4.69884 30.8481ZM13.9865 26.56L13.7582 26.7877H13.3245L12.4575 23.8983C12.407 23.7303 12.3436 23.5691 12.2689 23.415L13.2683 23.7149C13.9973 23.9333 14.4867 24.5911 14.4867 25.3515C14.4867 25.8012 14.3043 26.2417 13.9865 26.56ZM9.85032 21.6362C6.15774 21.6362 3.15339 18.6319 3.15339 14.9393V10.4333C3.15339 9.99388 3.43209 9.6034 3.84627 9.45967L6.71461 8.46595C7.53421 9.01819 8.51763 9.33295 9.55926 9.33295H15.517C16.0852 9.33295 16.5473 9.79504 16.5473 10.3632V14.9393C16.5473 18.6319 13.5429 21.6362 9.85032 21.6362ZM7.27458 30.9089V28.3754C7.69082 29.4181 8.39348 30.2892 9.27593 30.9089H7.27458ZM8.13436 27.7387L7.38431 25.489C7.31167 25.2701 7.27458 25.0414 7.27458 24.8096C7.27458 23.6278 8.23636 22.6665 9.41811 22.6665C10.3717 22.6665 11.1969 23.2801 11.471 24.194L12.3596 27.1566L11.5467 27.9695L12.2751 28.6979L13.1545 27.818H15.517V30.9089H12.5332C10.5344 30.9089 8.76645 29.6344 8.13436 27.7387ZM17.5776 30.9089H16.5473V27.818H17.5776V30.9089ZM15.1002 26.7877C15.365 26.3576 15.517 25.8605 15.517 25.3515C15.517 24.1327 14.7324 23.0781 13.5651 22.7278L12.1706 22.3095C15.1435 21.3715 17.3375 18.6803 17.5518 15.4545H17.5776C17.9644 15.4545 18.323 15.3406 18.6326 15.1546C18.6176 15.2865 18.6078 15.4194 18.6078 15.5539C18.6078 16.2653 18.8165 16.9535 19.2106 17.5444L19.3466 17.7484C18.9051 18.0209 18.6078 18.5047 18.6078 19.0605C18.6078 19.9126 19.3012 20.6059 20.1533 20.6059H20.6988C20.8647 22.0968 21.7405 23.3733 22.9794 24.0956C22.8233 24.2851 22.6842 24.4871 22.5735 24.7076L21.2057 23.9261C20.9446 23.7762 20.6463 23.6968 20.3444 23.6968C19.3868 23.6968 18.6078 24.4757 18.6078 25.4329C18.6078 25.9377 18.7912 26.4148 19.1111 26.7877H15.1002ZM24.3162 25.0378L24.0576 25.5555L23.4729 25.2212C23.5955 24.96 23.7655 24.7276 23.9767 24.5309C24.1648 24.587 24.3585 24.6287 24.5558 24.6607C24.4661 24.7786 24.3837 24.9023 24.3162 25.0378ZM20.1074 26.3097C19.8138 26.1134 19.6381 25.7863 19.6381 25.4329C19.6381 25.0434 19.955 24.7271 20.3444 24.7271C20.467 24.7271 20.5881 24.7596 20.6947 24.8204L21.3021 25.1671L20.4073 26.509L20.1074 26.3097ZM19.6381 29.8786H18.6078V27.818H19.6381C20.2064 27.818 20.6684 28.2801 20.6684 28.8483C20.6684 29.4165 20.2064 29.8786 19.6381 29.8786ZM27.8805 30.9089H23.7593V29.7421C24.0777 29.8281 24.4058 29.8786 24.7407 29.8786H25.1544C26.2279 29.8786 27.1954 29.4232 27.8805 28.6989V30.9089ZM25.1544 28.8483H24.7407C24.2008 28.8483 23.6779 28.6897 23.2287 28.3904L21.264 27.0803L22.1984 25.6791L23.8835 26.6419L24.3291 27.5331L25.2507 27.0721L24.8504 26.2726L25.2373 25.4983C25.4753 25.0223 25.9534 24.7271 26.4855 24.7271C27.2546 24.7271 27.8805 25.353 27.8805 26.1222C27.8805 27.6254 26.6576 28.8483 25.1544 28.8483ZM28.9108 20.0908C28.9108 22.0788 27.2933 23.6968 25.3048 23.6968C23.3163 23.6968 21.6987 22.0788 21.6987 20.0908V17.2621C21.6987 17.0334 21.8523 16.8294 22.0727 16.7671L24.0818 16.1927C24.7912 16.7094 25.6587 16.9999 26.5782 16.9999H28.3957C28.6795 16.9999 28.9108 17.2307 28.9108 17.5151V20.0908ZM30.4563 19.5756H29.9411V18.5453H30.4563C30.7401 18.5453 30.9714 18.7761 30.9714 19.0605C30.9714 19.3449 30.7401 19.5756 30.4563 19.5756Z" fill="url(#paint5_linear_974_16605)"/>
<path d="M26.0529 21.4597C25.5913 21.69 25.0226 21.69 24.5615 21.4597L23.9923 21.1748L23.5312 22.0964L24.101 22.3813C24.4735 22.5678 24.8907 22.6662 25.307 22.6662C25.7232 22.6662 26.1405 22.5678 26.5134 22.3813L27.0827 22.0964L26.6216 21.1748L26.0529 21.4597Z" fill="url(#paint6_linear_974_16605)"/>
<defs>
<linearGradient id="paint0_linear_974_16605" x1="10.5956" y1="16.7686" x2="10.5956" y2="18.5448" gradientUnits="userSpaceOnUse">
<stop stop-color="#91278F"/>
<stop offset="1" stop-color="#1C75BC"/>
</linearGradient>
<linearGradient id="paint1_linear_974_16605" x1="6.24028" y1="11.333" x2="6.24028" y2="13.3936" gradientUnits="userSpaceOnUse">
<stop stop-color="#91278F"/>
<stop offset="1" stop-color="#1C75BC"/>
</linearGradient>
<linearGradient id="paint2_linear_974_16605" x1="13.459" y1="11.333" x2="13.459" y2="13.3936" gradientUnits="userSpaceOnUse">
<stop stop-color="#91278F"/>
<stop offset="1" stop-color="#1C75BC"/>
</linearGradient>
<linearGradient id="paint3_linear_974_16605" x1="23.7617" y1="18.0479" x2="23.7617" y2="19.4252" gradientUnits="userSpaceOnUse">
<stop stop-color="#91278F"/>
<stop offset="1" stop-color="#1C75BC"/>
</linearGradient>
<linearGradient id="paint4_linear_974_16605" x1="26.8554" y1="18.0479" x2="26.8554" y2="19.4252" gradientUnits="userSpaceOnUse">
<stop stop-color="#91278F"/>
<stop offset="1" stop-color="#1C75BC"/>
</linearGradient>
<linearGradient id="paint5_linear_974_16605" x1="16.0321" y1="0" x2="16.0321" y2="32" gradientUnits="userSpaceOnUse">
<stop stop-color="#91278F"/>
<stop offset="1" stop-color="#1C75BC"/>
</linearGradient>
<linearGradient id="paint6_linear_974_16605" x1="25.307" y1="21.1748" x2="25.307" y2="22.6662" gradientUnits="userSpaceOnUse">
<stop stop-color="#91278F"/>
<stop offset="1" stop-color="#1C75BC"/>
</linearGradient>
</defs>
</svg>
