<svg width="32" height="32" viewBox="0 0 32 32" fill="none" xmlns="http://www.w3.org/2000/svg">
<path fill-rule="evenodd" clip-rule="evenodd" d="M25.9488 26.9244H6.77292C6.66857 26.9244 6.57268 26.9667 6.50358 27.0372C6.43448 27.1063 6.39076 27.2022 6.39076 27.3066V27.4603C6.39076 27.5646 6.43307 27.6605 6.50358 27.7296C6.57268 27.7987 6.66857 27.8425 6.77292 27.8425H25.9488C26.0532 27.8425 26.149 27.8002 26.2181 27.7296C26.2872 27.6605 26.331 27.5646 26.331 27.4603V27.3066C26.331 27.2022 26.2887 27.1063 26.2181 27.0372C26.1646 26.9836 26.0969 26.9456 26.0207 26.9315H26.0193L26.0151 26.9301C25.9925 26.9258 25.9714 26.9244 25.9474 26.9244H25.9488ZM10.0516 28.8268H7.10571V29.9761C7.10571 30.2468 7.24108 30.4979 7.45967 30.684C7.69799 30.8871 8.0336 31.014 8.40873 31.014H8.75C9.12513 31.014 9.46076 30.8871 9.69906 30.684C9.91765 30.4979 10.053 30.2468 10.053 29.9761V28.8268H10.0516ZM12.3418 23.6134C12.3404 23.6007 12.3418 23.6063 12.3418 23.6134V23.6134ZM20.1191 23.4428C20.1995 23.4428 20.2672 23.4681 20.3137 23.5119C20.3532 23.5471 20.3786 23.5951 20.38 23.6444L20.4026 24.4426H12.3643L12.3403 23.6134C12.3417 23.6232 12.3418 23.6388 12.3418 23.6134C12.3418 23.5796 12.3614 23.5457 12.3939 23.5161C12.4432 23.4709 12.5137 23.4427 12.5913 23.4399C12.628 23.4385 12.5561 23.4413 12.6026 23.4413H20.1189L20.1191 23.4428ZM12.6028 22.457H20.1191C20.4491 22.457 20.7495 22.5811 20.9723 22.7828C21.205 22.9943 21.3516 23.289 21.3615 23.6162L21.3996 24.9192C21.4066 25.19 21.1937 25.4156 20.9229 25.4227H20.9102V25.4241H11.8907C11.6185 25.4241 11.3985 25.2041 11.3985 24.9319C11.3985 24.9235 11.3985 24.9136 11.4 24.9051L11.3633 23.6416C11.3619 23.5908 11.3605 23.6444 11.3605 23.6106C11.3605 23.2848 11.5057 22.9929 11.7384 22.7828C11.9528 22.5896 12.2461 22.4655 12.5662 22.457C12.6184 22.4556 12.5747 22.4542 12.6043 22.4542L12.6028 22.457ZM25.6148 25.9402H7.10571V22.2947C7.10571 20.398 8.65271 18.851 10.5494 18.851H22.1708C24.0675 18.851 25.6145 20.398 25.6145 22.2947L25.6148 25.9402ZM22.6689 28.8269V29.9762C22.6689 30.247 22.8042 30.498 23.0228 30.6841C23.2612 30.8872 23.5968 31.0141 23.9719 31.0141H24.3132C24.6883 31.0141 25.0239 30.8872 25.2622 30.6841C25.4808 30.498 25.6162 30.247 25.6162 29.9762V28.8269H22.6689ZM26.5992 24.0803C26.7191 24.0676 26.846 24.0507 26.9701 24.031C27.1971 23.9957 27.4058 23.952 27.5158 23.9054C27.5257 23.9012 27.5482 23.8913 27.5821 23.8744C28.0277 23.6643 28.3422 23.285 28.4973 22.8421C28.6553 22.3923 28.651 21.879 28.455 21.4136C28.4494 21.4009 28.4381 21.3755 28.4212 21.3403C28.3803 21.2528 28.3352 21.1711 28.2858 21.0977C28.2802 21.0907 28.2745 21.0836 28.2689 21.0752C28.2167 20.9976 28.1603 20.9271 28.0996 20.8594C28.0038 20.7691 27.9445 20.6422 27.9445 20.5012C27.9445 20.229 28.1645 20.009 28.4367 20.009C29.0826 20.009 29.6664 19.7467 30.0894 19.3251C30.5125 18.902 30.7734 18.3182 30.7734 17.6724C30.7734 17.1689 30.6154 16.7035 30.3461 16.3228C30.0697 15.9308 29.6748 15.629 29.2151 15.4668C28.9584 15.3765 28.8245 15.0959 28.9147 14.8392C28.9514 14.7377 29.0163 14.6545 29.0995 14.5981C29.6903 14.1327 30.1741 13.5376 30.5068 12.8565C30.8298 12.1951 31.0117 11.4477 31.0117 10.6552C31.0117 9.27035 30.4504 8.01666 29.5423 7.1085C28.6341 6.20034 27.3804 5.63907 25.9956 5.63907C25.0028 5.63907 24.0791 5.92535 23.3035 6.42034C22.5011 6.93085 21.8539 7.66554 21.4477 8.53706C21.3335 8.78385 21.0402 8.88961 20.7934 8.77539C20.6326 8.70065 20.5311 8.54976 20.5128 8.38477C20.414 7.84044 20.1264 7.36098 19.7188 7.01686C19.3141 6.67418 18.7881 6.4683 18.2127 6.4683C17.5527 6.4683 16.959 6.70804 16.5374 7.11278C16.1298 7.5034 15.8788 8.05058 15.8788 8.68236C15.8788 8.95453 15.6588 9.17452 15.3867 9.17452C15.2922 9.17452 15.2033 9.14773 15.1272 9.10119C15.013 9.04197 14.8903 8.99402 14.762 8.96158C14.6294 8.92774 14.4884 8.91082 14.3417 8.91082C13.8707 8.91082 13.4448 9.10119 13.136 9.41003C12.8272 9.71886 12.6368 10.1448 12.6368 10.6157C12.6368 10.7187 12.6438 10.8146 12.6593 10.902H21.6677C22.2995 10.902 22.8833 11.1178 23.3458 11.4872C23.8055 11.8553 24.1412 12.3799 24.2808 12.999L25.7855 19.7412C26.296 20.4633 26.5963 21.3432 26.5963 22.2909V24.0762L26.5992 24.0803ZM29.2913 20.8834C29.2969 20.8961 29.304 20.9087 29.3096 20.9214C29.3209 20.9468 29.3378 20.9849 29.359 21.0343C29.6537 21.7323 29.6622 22.4995 29.4252 23.1707C29.1855 23.8504 28.6976 24.4357 28.0023 24.7643C27.9798 24.7741 27.9459 24.7897 27.898 24.8108C27.7062 24.8912 27.4185 24.9547 27.121 25.0012C26.9461 25.028 26.7656 25.0505 26.5992 25.0675V26.1068C26.7148 26.1702 26.822 26.2492 26.9151 26.3423C27.1619 26.5891 27.3156 26.9317 27.3156 27.3083V27.462C27.3156 27.8385 27.1619 28.1798 26.9151 28.428C26.822 28.5211 26.7163 28.6 26.5992 28.6635V29.9778C26.5992 30.5503 26.3313 31.0636 25.8997 31.4317C25.488 31.7828 24.9267 32 24.3119 32H23.9706C23.3572 32 22.7945 31.7828 22.3827 31.4317C21.9512 31.0636 21.6833 30.5489 21.6833 29.9778V28.8285H11.0363V29.9778C11.0363 30.5503 10.7684 31.0636 10.3368 31.4317C9.92507 31.7828 9.36381 32 8.74897 32H8.4077C7.79427 32 7.23159 31.7828 6.81982 31.4317C6.38831 31.0636 6.12036 30.5489 6.12036 29.9778V28.6635C6.00473 28.6 5.89755 28.5211 5.80448 28.428C5.55769 28.1812 5.40397 27.8385 5.40397 27.462V27.3083C5.40397 26.9317 5.55768 26.5905 5.80448 26.3423C5.89755 26.2492 6.00331 26.1702 6.12036 26.1068V22.2963C6.12036 21.3782 6.4024 20.5237 6.8847 19.8143L8.43171 12.9945C8.57132 12.3782 8.90835 11.8564 9.36951 11.4884C9.83063 11.1203 10.413 10.9073 11.0434 10.9073H11.6681C11.6569 10.8114 11.6512 10.7156 11.6512 10.6211C11.6512 9.87789 11.953 9.20522 12.4395 8.71872C12.9261 8.23218 13.5987 7.93041 14.3419 7.93041C14.5548 7.93041 14.7635 7.95579 14.9652 8.00374C15.0992 7.3776 15.4151 6.83186 15.8565 6.40879C16.46 5.83059 17.2935 5.48792 18.2129 5.48792C19.028 5.48792 19.774 5.78265 20.3536 6.27059C20.6554 6.52584 20.912 6.83327 21.108 7.18016C21.5565 6.55121 22.1234 6.0125 22.7777 5.5951C23.7099 5.00142 24.814 4.6573 25.9972 4.6573C27.6542 4.6573 29.1533 5.32857 30.2391 6.41442C31.325 7.50027 31.9962 8.99934 31.9962 10.6578C31.9962 11.5984 31.7777 12.4924 31.387 13.2892C31.0951 13.8857 30.7087 14.4258 30.2462 14.8898C30.5987 15.1197 30.9061 15.4158 31.1487 15.7585C31.5323 16.3 31.7565 16.9599 31.7565 17.6735C31.7565 18.5902 31.3842 19.4207 30.7835 20.0229C30.3759 20.4305 29.8626 20.7322 29.2886 20.8845L29.2913 20.8834ZM5.8031 9.13639C5.47452 8.80781 5.19671 8.42848 4.98238 8.01105C4.76803 8.42845 4.49021 8.8078 4.16165 9.13639C3.83307 9.46497 3.45374 9.74278 3.0363 9.95712C3.45371 10.1715 3.83306 10.4493 4.16165 10.7778C4.49023 11.1064 4.76804 11.4858 4.98238 11.9032C5.19673 11.4858 5.47454 11.1064 5.8031 10.7778C6.13168 10.4493 6.51101 10.1715 6.92845 9.95712C6.51105 9.74277 6.13169 9.46495 5.8031 9.13639ZM4.98097 5.48548C4.7088 5.48548 4.4888 5.70547 4.4888 5.97764C4.4888 6.93657 4.09537 7.80808 3.4636 8.44126C2.83042 9.07444 1.9589 9.46647 0.99998 9.46647C0.72781 9.46647 0.507812 9.68646 0.507812 9.95863C0.507812 10.2308 0.727806 10.4508 0.99998 10.4508C1.9589 10.4508 2.83042 10.8442 3.4636 11.476C4.09678 12.1092 4.4888 12.9807 4.4888 13.9396C4.4888 14.2118 4.70879 14.4318 4.98097 14.4318C5.25314 14.4318 5.47314 14.2118 5.47314 13.9396C5.47314 12.9807 5.86657 12.1092 6.49834 11.476C7.13152 10.8428 8.00304 10.4508 8.96196 10.4508C9.23413 10.4508 9.45413 10.2308 9.45413 9.95863C9.45413 9.68646 9.23413 9.46647 8.96196 9.46647C8.00304 9.46647 7.13152 9.07304 6.49834 8.44126C5.86516 7.80808 5.47314 6.93657 5.47314 5.97764C5.47314 5.70547 5.25314 5.48548 4.98097 5.48548ZM10.468 20.7761C10.3312 20.6394 10.1422 20.5547 9.93351 20.5547C9.72479 20.5547 9.53582 20.6394 9.39903 20.7761C9.26224 20.9129 9.17763 21.1019 9.17763 21.3106C9.17763 21.5193 9.26225 21.7083 9.39903 21.8451C9.53582 21.9819 9.72479 22.0665 9.93351 22.0665C10.1422 22.0665 10.3312 21.9819 10.468 21.8451C10.6048 21.7083 10.6894 21.5193 10.6894 21.3106C10.6894 21.1019 10.6048 20.9129 10.468 20.7761ZM9.93351 19.5704C9.45264 19.5704 9.01828 19.765 8.70383 20.0795C8.38936 20.394 8.19474 20.8298 8.19474 21.3092C8.19474 21.7901 8.38934 22.2245 8.70383 22.5389C9.01831 22.8534 9.45405 23.048 9.93351 23.048C10.4144 23.048 10.8488 22.8534 11.1632 22.5389C11.4777 22.2244 11.6723 21.7887 11.6723 21.3092C11.6723 20.8283 11.4777 20.394 11.1632 20.0795C10.8487 19.7651 10.413 19.5704 9.93351 19.5704ZM22.2686 17.8683C22.2361 17.8669 22.2037 17.8669 22.1713 17.8669H10.5499C10.5104 17.8669 10.4724 17.8683 10.4329 17.8683L11.3425 13.8734C11.3594 13.8 11.3989 13.738 11.4524 13.6957C11.506 13.6534 11.5751 13.628 11.6527 13.628H21.0614C21.139 13.628 21.2081 13.652 21.2616 13.6943C21.3166 13.738 21.3575 13.8015 21.3731 13.8748L22.2671 17.8683L22.2686 17.8683ZM9.39199 18.0206C8.95766 18.1391 8.54871 18.3224 8.1778 18.5593L9.39199 13.2091C9.48084 12.8185 9.69378 12.4885 9.98286 12.2573C10.2734 12.026 10.6428 11.892 11.0447 11.892H21.6693C22.0727 11.892 22.4435 12.026 22.7326 12.2587C23.0245 12.4928 23.2375 12.8242 23.3249 13.2162L24.5137 18.5426C24.1442 18.3113 23.7381 18.1322 23.3066 18.018L22.3321 13.6645C22.2644 13.3642 22.1008 13.1103 21.878 12.9312C21.6524 12.7507 21.3689 12.645 21.0629 12.645H11.6542C11.3496 12.645 11.0662 12.7493 10.842 12.9284C10.6177 13.1075 10.4542 13.3613 10.3851 13.6603L9.39087 18.0235L9.39199 18.0206ZM23.4307 20.7762C23.2939 20.6394 23.1049 20.5548 22.8962 20.5548C22.6875 20.5548 22.4985 20.6394 22.3617 20.7762C22.2249 20.913 22.1403 21.1019 22.1403 21.3107C22.1403 21.5194 22.2249 21.7083 22.3617 21.8451C22.4985 21.9819 22.6875 22.0665 22.8962 22.0665C23.1049 22.0665 23.2939 21.9819 23.4307 21.8451C23.5675 21.7083 23.6521 21.5194 23.6521 21.3107C23.6521 21.1019 23.5675 20.913 23.4307 20.7762ZM22.8962 19.5705C22.4153 19.5705 21.981 19.7651 21.6665 20.0796C21.352 20.394 21.1574 20.8298 21.1574 21.3092C21.1574 21.7901 21.352 22.2245 21.6665 22.5389C21.981 22.8534 22.4167 23.048 22.8962 23.048C23.3771 23.048 23.8114 22.8534 24.1259 22.5389C24.4403 22.2244 24.635 21.7887 24.635 21.3092C24.635 20.8284 24.4404 20.394 24.1259 20.0796C23.8114 19.7651 23.3757 19.5705 22.8962 19.5705ZM28.3002 12.0809C28.3707 11.8186 28.64 11.6635 28.9023 11.7326C29.1646 11.8031 29.3198 12.0724 29.2507 12.3348C29.2493 12.3376 29.0194 13.2175 28.2114 13.4911C27.9547 13.5785 27.6755 13.4403 27.588 13.1837C27.5006 12.927 27.6388 12.6478 27.8955 12.5604C28.2015 12.4574 28.2988 12.0823 28.3002 12.0809ZM27.2115 8.34263C26.9549 8.25238 26.8209 7.97176 26.9111 7.71508C27.0014 7.45842 27.282 7.32447 27.5387 7.41471C28.193 7.64598 28.7529 8.07608 29.1463 8.63172C29.5299 9.17323 29.7541 9.8332 29.7541 10.5468C29.7541 10.8189 29.5341 11.0389 29.2619 11.0389C28.9898 11.0389 28.7698 10.819 28.7698 10.5468C28.7698 10.0433 28.6118 9.57796 28.3425 9.1972C28.0661 8.80518 27.6712 8.50338 27.2115 8.34121L27.2115 8.34263ZM11.1916 2.69207C10.9476 2.4481 10.7361 2.1703 10.5641 1.86853C10.392 2.17172 10.1819 2.44813 9.93651 2.69207C9.69254 2.93603 9.41474 3.14756 9.11297 3.31961C9.41616 3.49166 9.69257 3.70178 9.93651 3.94716C10.1805 4.19113 10.392 4.46893 10.5641 4.7707C10.7361 4.46751 10.9462 4.1911 11.1916 3.94716C11.4356 3.7032 11.7134 3.49167 12.0151 3.31961C11.712 3.14757 11.4355 2.93745 11.1916 2.69207ZM11.0562 0C11.0562 0.777006 11.3749 1.48354 11.8868 1.99683C12.4002 2.51015 13.1067 2.82745 13.8837 2.82745V3.81178C13.1067 3.81178 12.4001 4.13049 11.8868 4.6424C11.3735 5.15572 11.0562 5.86222 11.0562 6.63923H10.0719C10.0719 5.86222 9.75318 5.15569 9.24127 4.6424C8.72795 4.12908 8.02145 3.81178 7.24444 3.81178V2.82745C8.02145 2.82745 8.72799 2.50874 9.24127 1.99683C9.7546 1.48351 10.0719 0.777006 10.0719 0H11.0562Z" fill="url(#paint0_linear_974_16614)"/>
<defs>
<linearGradient id="paint0_linear_974_16614" x1="16.252" y1="0" x2="16.252" y2="32" gradientUnits="userSpaceOnUse">
<stop stop-color="#91278F"/>
<stop offset="1" stop-color="#1C75BC"/>
</linearGradient>
</defs>
</svg>
