<svg width="32" height="30" viewBox="0 0 32 30" fill="none" xmlns="http://www.w3.org/2000/svg">
<path d="M13.5545 12.1242C13.5545 12.9673 12.8642 13.6186 12.0601 13.6186C11.2171 13.6186 10.5657 12.9283 10.5657 12.1242C10.5657 11.2812 11.256 10.6298 12.0601 10.6298C12.8642 10.6298 13.5545 11.2812 13.5545 12.1242ZM19.9558 10.6298C19.1128 10.6298 18.4614 11.3202 18.4614 12.1242C18.4614 12.9673 19.1517 13.6186 19.9558 13.6186C20.7988 13.6186 21.4502 12.9283 21.4502 12.1242C21.4502 11.2812 20.7988 10.6298 19.9558 10.6298ZM30.7267 13.9256C30.1907 14.3853 29.5378 14.616 28.8864 14.616C28.1198 14.616 27.2767 14.2715 26.5475 13.6576C26.2031 13.3506 25.8572 12.9673 25.5502 12.5466L26.2405 15.4979C26.8155 17.9132 26.3558 20.3287 24.9378 22.3589C23.5961 24.2755 21.5641 25.5408 19.3031 25.9242C19.2642 27.7645 17.8087 29.2215 15.9684 29.2215C14.1281 29.2215 12.6337 27.7271 12.6337 25.9242C10.3727 25.5408 8.34076 24.2381 6.99909 22.3589C5.58106 20.3269 5.12136 17.9114 5.69636 15.4979L6.38667 12.5466C6.07971 12.9688 5.77272 13.3132 5.42834 13.6202C4.70061 14.2716 3.895 14.5785 3.08938 14.5785C2.43802 14.5785 1.78666 14.3479 1.24907 13.8882C-0.436993 12.4702 -0.207912 9.74783 0.713011 7.83116C1.86302 5.4922 3.58802 3.53819 5.65726 2.34909C8.53227 0.700442 10.5643 1.73514 11.2547 2.19635C12.6353 1.31438 14.245 0.77832 15.9701 0.77832C17.6952 0.77832 19.3438 1.27696 20.6855 2.19635C21.3758 1.73666 23.4078 0.663013 26.283 2.34909C28.3524 3.53804 30.1163 5.49213 31.2272 7.83116C32.223 9.74783 32.4521 12.4703 30.7271 13.9254L30.7267 13.9256ZM7.15165 9.51729L7.6503 7.40895C8.10999 5.45333 9.18363 3.84363 10.6406 2.65637C9.9503 2.23409 8.34061 1.69803 6.11688 2.96334C4.16126 4.07439 2.51415 5.91471 1.47776 8.13835C0.672148 9.787 0.443067 12.1243 1.82217 13.3134C2.74156 14.119 3.93051 14.0037 5.00415 13.0453C5.84868 12.2787 6.61556 11.0132 7.15165 9.51729ZM18.5754 25.9244V23.3564C17.6934 23.3174 16.9268 22.8967 16.3907 22.2827V27.2661C16.3907 27.4967 16.238 27.6494 16.0074 27.6494C15.7768 27.6494 15.624 27.4967 15.624 27.2661V22.2827C15.088 22.8967 14.3213 23.3174 13.4393 23.3564V25.9244C13.4393 27.3424 14.5893 28.4924 16.0074 28.4924C17.4254 28.4924 18.5754 27.3424 18.5754 25.9244ZM25.5145 15.6897L23.6368 7.60062C22.7923 4.0368 19.6494 1.54508 16.0077 1.54508C12.366 1.54508 9.22304 4.03676 8.38009 7.60215L6.50236 15.6913C6.00372 17.876 6.42599 20.0996 7.69131 21.94C8.88026 23.6261 10.6816 24.7761 12.6747 25.1594V23.2817C11.2566 23.0137 10.183 21.7484 10.183 20.215C10.183 19.9844 10.3357 19.8317 10.5663 19.8317C10.7969 19.8317 10.9497 19.9844 10.9497 20.215C10.9497 21.5177 11.9844 22.554 13.2886 22.554C14.3997 22.554 15.358 21.7484 15.5886 20.7137L13.8636 17.7233C13.6719 17.3789 13.9025 16.9956 14.2859 16.9956H17.7359C18.1192 16.9956 18.3499 17.4179 18.1582 17.7233L16.4332 20.7137C16.6638 21.7484 17.6221 22.554 18.7332 22.554C20.0359 22.554 21.0721 21.5193 21.0721 20.215C21.0721 19.9844 21.2249 19.8317 21.4555 19.8317C21.6861 19.8317 21.8388 19.9844 21.8388 20.215C21.8388 21.7094 20.7652 22.9747 19.3471 23.2817V25.1594C21.3402 24.7761 23.1415 23.6261 24.3305 21.94C25.6302 20.0982 26.0506 17.8748 25.5145 15.6897ZM30.6133 8.13844C29.5396 5.95374 27.891 4.11342 25.9742 2.96342C23.7505 1.6607 22.1408 2.2357 21.4504 2.65645C22.9074 3.8454 23.981 5.4551 24.4407 7.40904L24.9394 9.51738C25.438 11.0118 26.2421 12.2397 27.1241 13.0827C28.1977 14.041 29.3851 14.1174 30.3061 13.3507C31.6477 12.1633 31.4174 9.82465 30.6133 8.13844Z" fill="url(#paint0_linear_978_18912)"/>
<defs>
<linearGradient id="paint0_linear_978_18912" x1="16" y1="0.77832" x2="16" y2="29.2215" gradientUnits="userSpaceOnUse">
<stop stop-color="#91278F"/>
<stop offset="1" stop-color="#1C75BC"/>
</linearGradient>
</defs>
</svg>
