<svg width="32" height="30" viewBox="0 0 32 30" fill="none" xmlns="http://www.w3.org/2000/svg">
<path d="M11.0771 21.3027C9.50869 21.3027 8.23438 22.5771 8.23438 24.1454C8.23438 25.7138 9.50869 26.9882 11.0771 26.9882C12.6455 26.9882 13.9198 25.7138 13.9198 24.1454C13.9198 22.5771 12.6455 21.3027 11.0771 21.3027ZM11.0771 26.2303C9.92718 26.2303 8.98841 25.2953 8.98841 24.1417C8.98841 22.988 9.92341 22.053 11.0771 22.053C12.2308 22.053 13.1658 22.988 13.1658 24.1417C13.1658 25.2953 12.2308 26.2303 11.0771 26.2303Z" fill="url(#paint0_linear_974_16545)"/>
<path d="M28.2852 23.7666C27.3313 23.7666 26.5547 24.5433 26.5547 25.4971C26.5547 26.451 27.3313 27.2276 28.2852 27.2276C29.239 27.2276 30.0157 26.451 30.0157 25.4971C30.0157 24.5433 29.239 23.7666 28.2852 23.7666ZM28.2852 26.4774C27.7461 26.4774 27.3087 26.04 27.3087 25.5009C27.3087 24.9617 27.7461 24.5244 28.2852 24.5244C28.8243 24.5244 29.2617 24.9617 29.2617 25.5009C29.2617 26.04 28.8243 26.4774 28.2852 26.4774Z" fill="url(#paint1_linear_974_16545)"/>
<path d="M28.5616 21.8129L28.3618 21.3002C28.1469 20.7535 27.6304 20.3727 27.046 20.3275L23.4568 20.0522V15.1661C23.4568 13.9974 22.5067 13.0473 21.338 13.0473H20.648V12.3536C20.648 11.313 19.8035 10.4685 18.7629 10.4685H16.5838C15.5432 10.4685 14.6987 11.313 14.6987 12.3536V13.0473H14.005C12.8362 13.0473 11.8861 13.9974 11.8861 15.1661V19.1625L11.7429 19.1512C11.6373 19.1361 11.5317 19.1248 11.4262 19.1172L6.10269 2.54358C5.76715 1.50301 4.80575 0.801758 3.7124 0.801758H1.34851C0.99411 0.801758 0.654794 0.941254 0.394652 1.19386C0.160902 1.42761 0.0251755 1.73676 0.00255449 2.06476C-0.0200665 2.42293 0.108119 2.76979 0.364491 3.04124C0.635943 3.32777 1.01673 3.49366 1.40883 3.49366H3.58045L6.96606 14.0577L3.82551 13.1302C3.07901 12.9078 2.29105 13.051 1.66143 13.5223C0.986569 14.0275 0.598242 14.8117 0.598242 15.6789V21.5188C0.598242 22.9817 1.73683 24.1693 3.13557 24.1693H6.01975C6.03106 26.9404 8.29316 29.1949 11.068 29.1949C12.7985 29.1949 14.3292 28.3202 15.2378 26.9856H24.9158C25.4889 28.2863 26.7896 29.1987 28.3015 29.1987C30.3411 29.1987 32 27.5398 32 25.5001C32 23.4605 30.4806 21.9486 28.5616 21.8129ZM27.6605 21.5754L27.7661 21.8431C26.5785 22.0165 25.5756 22.7517 25.0327 23.7696H16.0974C15.9843 22.2578 15.2039 20.9307 14.0502 20.0824L26.9894 21.0777C27.2873 21.1004 27.5512 21.2964 27.6605 21.5754ZM18.0504 19.6338V16.1991H22.7028V19.9919L18.0504 19.6338ZM15.4527 12.3536C15.4527 11.7315 15.9617 11.2225 16.5838 11.2225H18.7629C19.385 11.2225 19.894 11.7315 19.894 12.3536V13.0473H15.4527V12.3536ZM14.005 13.8013H15.0682C15.0682 13.8013 15.0719 13.8013 15.0757 13.8013H20.271C20.271 13.8013 20.2748 13.8013 20.2785 13.8013H21.3417C22.0958 13.8013 22.7065 14.4121 22.7065 15.1661V15.4489H17.6771H12.6477V15.1661C12.6477 14.4121 13.2585 13.8013 14.0125 13.8013H14.005ZM12.6402 16.2029H17.2963V19.5772L12.6402 19.219V16.2029ZM3.70863 2.73963H1.40506C1.22032 2.73963 1.03935 2.66045 0.911166 2.52473C0.801831 2.40785 0.745278 2.26081 0.752819 2.11001C0.760359 1.96297 0.824452 1.82724 0.922476 1.72922C1.03935 1.61611 1.19016 1.55202 1.34474 1.55202H3.70863C4.47398 1.55202 5.14507 2.04214 5.38259 2.77356L10.6382 19.1172C10.2273 19.1512 9.83516 19.2379 9.45814 19.3623L4.25531 3.13549C4.17613 2.90174 3.95746 2.7434 3.7124 2.7434L3.70863 2.73963ZM1.35228 21.5188V15.6789C1.35228 15.053 1.6275 14.4875 2.11008 14.1293C2.54742 13.8013 3.09409 13.7033 3.61061 13.8541L7.24128 14.9248L8.76066 19.6602C7.34308 20.3916 6.31759 21.779 6.0763 23.4152H3.13557C2.15155 23.4152 1.35228 22.5632 1.35228 21.5188ZM11.0642 28.4409C8.69657 28.4409 6.77001 26.5143 6.77001 24.1467C6.77001 21.779 8.6928 19.8562 11.0567 19.8524L11.6712 19.9014C13.7524 20.1955 15.3622 21.9863 15.3622 24.1504C15.3622 26.5181 13.4357 28.4447 11.068 28.4447L11.0642 28.4409ZM15.6563 26.2316C15.8976 25.7037 16.0484 25.1269 16.0936 24.5199H24.7349C24.6482 24.8328 24.5992 25.1571 24.5992 25.4964C24.5992 25.749 24.6255 25.994 24.6746 26.2316H15.6563ZM28.2977 28.4447C26.6727 28.4447 25.3532 27.1213 25.3532 25.5001C25.3532 23.879 26.6727 22.5556 28.2977 22.5556C29.9226 22.5556 31.2422 23.879 31.2422 25.5001C31.2422 27.1213 29.9189 28.4447 28.2977 28.4447Z" fill="url(#paint2_linear_974_16545)"/>
<path d="M2.92389 16.6876H5.74775C5.95511 16.6876 6.12477 16.518 6.12477 16.3106C6.12477 16.1033 5.95511 15.9336 5.74775 15.9336H2.92389C2.71653 15.9336 2.54688 16.1033 2.54688 16.3106C2.54688 16.518 2.71653 16.6876 2.92389 16.6876Z" fill="url(#paint3_linear_974_16545)"/>
<path d="M2.92389 18.5597H5.74775C5.95511 18.5597 6.12477 18.39 6.12477 18.1827C6.12477 17.9753 5.95511 17.8057 5.74775 17.8057H2.92389C2.71653 17.8057 2.54688 17.9753 2.54688 18.1827C2.54688 18.39 2.71653 18.5597 2.92389 18.5597Z" fill="url(#paint4_linear_974_16545)"/>
<path d="M6.12477 20.0528C6.12477 19.8454 5.95511 19.6758 5.74775 19.6758H2.92389C2.71653 19.6758 2.54688 19.8454 2.54688 20.0528C2.54688 20.2602 2.71653 20.4298 2.92389 20.4298H5.74775C5.95511 20.4298 6.12477 20.2602 6.12477 20.0528Z" fill="url(#paint5_linear_974_16545)"/>
<defs>
<linearGradient id="paint0_linear_974_16545" x1="11.0771" y1="21.3027" x2="11.0771" y2="26.9882" gradientUnits="userSpaceOnUse">
<stop stop-color="#91278F"/>
<stop offset="1" stop-color="#1C75BC"/>
</linearGradient>
<linearGradient id="paint1_linear_974_16545" x1="28.2852" y1="23.7666" x2="28.2852" y2="27.2276" gradientUnits="userSpaceOnUse">
<stop stop-color="#91278F"/>
<stop offset="1" stop-color="#1C75BC"/>
</linearGradient>
<linearGradient id="paint2_linear_974_16545" x1="16" y1="0.801758" x2="16" y2="29.1987" gradientUnits="userSpaceOnUse">
<stop stop-color="#91278F"/>
<stop offset="1" stop-color="#1C75BC"/>
</linearGradient>
<linearGradient id="paint3_linear_974_16545" x1="4.33582" y1="15.9336" x2="4.33582" y2="16.6876" gradientUnits="userSpaceOnUse">
<stop stop-color="#91278F"/>
<stop offset="1" stop-color="#1C75BC"/>
</linearGradient>
<linearGradient id="paint4_linear_974_16545" x1="4.33582" y1="17.8057" x2="4.33582" y2="18.5597" gradientUnits="userSpaceOnUse">
<stop stop-color="#91278F"/>
<stop offset="1" stop-color="#1C75BC"/>
</linearGradient>
<linearGradient id="paint5_linear_974_16545" x1="4.33582" y1="19.6758" x2="4.33582" y2="20.4298" gradientUnits="userSpaceOnUse">
<stop stop-color="#91278F"/>
<stop offset="1" stop-color="#1C75BC"/>
</linearGradient>
</defs>
</svg>
